HIERARCHY
ROOT Hips
{
	OFFSET -3.958830 18.904000 13.208200
	CHANNELS 6 Xposition Yposition Zposition Zrotation Yrotation Xrotation 
	JOINT LHipJoint
	{
		OFFSET 0.000000 0.000000 0.000000
		CHANNELS 3 Zrotation Yrotation Xrotation
		JOINT LeftUpLeg
		{
			OFFSET 1.800000 -1.400000 0.085000
			CHANNELS 3 Zrotation Yrotation Xrotation
			JOINT LeftLeg
			{
				OFFSET 2.215000 -6.000000 0.000000
				CHANNELS 3 Zrotation Yrotation Xrotation
				JOINT LeftFoot
				{
					OFFSET 2.500000 -6.900000 0.000000
					CHANNELS 3 Zrotation Yrotation Xrotation
					JOINT LeftToeBase
					{
						OFFSET 0.200000 -0.500000 1.950000
						CHANNELS 3 Zrotation Yrotation Xrotation
						End Site
						{
							OFFSET 0.000000 0.000000 0.000000
						}
					}
				}
			}
		}
	}
	JOINT RHipJoint
	{
		OFFSET 0.000000 0.000000 0.000000
		CHANNELS 3 Zrotation Yrotation Xrotation
		JOINT RightUpLeg
		{
			OFFSET -1.800000 -1.400000 0.085000
			CHANNELS 3 Zrotation Yrotation Xrotation
			JOINT RightLeg
			{
				OFFSET -2.215000 -6.000000 0.000000
				CHANNELS 3 Zrotation Yrotation Xrotation
				JOINT RightFoot
				{
					OFFSET -2.500000 -6.900000 0.000000
					CHANNELS 3 Zrotation Yrotation Xrotation
					JOINT RightToeBase
					{
						OFFSET -0.200000 -0.500000 1.950000
						CHANNELS 3 Zrotation Yrotation Xrotation
						End Site
						{
							OFFSET 0.000000 0.000000 0.000000
						}
					}
				}
			}
		}
	}
	JOINT LowerBack
	{
		OFFSET 0.000000 0.000000 0.000000
		CHANNELS 3 Zrotation Yrotation Xrotation
		JOINT Spine
		{
			OFFSET -0.087000 1.940000 -0.288900
			CHANNELS 3 Zrotation Yrotation Xrotation
			JOINT Spine1
			{
				OFFSET 0.000000 1.950000 0.060000
				CHANNELS 3 Zrotation Yrotation Xrotation
				JOINT Neck
				{
					OFFSET 0.000000 0.000000 0.000000
					CHANNELS 3 Zrotation Yrotation Xrotation
					JOINT Neck1
					{
						OFFSET 0.000000 1.600000 0.340000
						CHANNELS 3 Zrotation Yrotation Xrotation
						JOINT Head
						{
							OFFSET 0.000000 1.667000 -0.240000
							CHANNELS 3 Zrotation Yrotation Xrotation
							End Site
							{
								OFFSET 0.000000 0.000000 0.000000
							}
						}
					}
				}
				JOINT LeftShoulder
				{
					OFFSET 0.000000 0.000000 0.000000
					CHANNELS 3 Zrotation Yrotation Xrotation
					JOINT LeftArm
					{
						OFFSET 2.700000 1.550000 -0.730000
						CHANNELS 3 Zrotation Yrotation Xrotation
						JOINT LeftForeArm
						{
							OFFSET 5.450000 0.000000 0.000000
							CHANNELS 3 Zrotation Yrotation Xrotation
							JOINT LeftHand
							{
								OFFSET 3.450000 0.000000 0.000000
								CHANNELS 3 Zrotation Yrotation Xrotation
								JOINT LeftHandIndex1
								{
									OFFSET 0.750000 0.000000 0.000000
									CHANNELS 3 Zrotation Yrotation Xrotation
									End Site
									{
										OFFSET 0.000000 0.000000 0.000000
									}
								}
							}
						}
					}
				}
				JOINT RightShoulder
				{
					OFFSET 0.000000 0.000000 0.000000
					CHANNELS 3 Zrotation Yrotation Xrotation
					JOINT RightArm
					{
						OFFSET -2.700000 1.550000 -0.730000
						CHANNELS 3 Zrotation Yrotation Xrotation
						JOINT RightForeArm
						{
							OFFSET -5.450000 0.000000 0.000000
							CHANNELS 3 Zrotation Yrotation Xrotation
							JOINT RightHand
							{
								OFFSET -3.450000 0.000000 0.000000
								CHANNELS 3 Zrotation Yrotation Xrotation
								JOINT RightHandIndex1
								{
									OFFSET -0.750000 0.000000 0.000000
									CHANNELS 3 Zrotation Yrotation Xrotation
									End Site
									{
										OFFSET 0.000000 0.000000 0.000000
									}
								}
							}
						}
					}
				}
			}
		}
	}
}
MOTION
Frames: 14
Frame Time: 0.016667
-1.860430 17.975030 -3.929120 -1.823847 -1.846547 2.205879 -15.025021 12.738574 2.224472 22.525791 0.455065 -10.816542 -1.767670 5.260149 9.497577 -1.323027 5.565443 2.939125 -0.108250 -0.510530 -0.459940 18.370945 -10.453226 3.370684 -22.504808 3.048857 -19.231825 19.362623 -7.056143 7.685429 -0.297228 -4.882196 2.646015 0.046790 1.303770 0.458610 -3.959040 -0.571761 -7.284430 7.533610 2.204485 4.535954 -0.942880 1.931381 12.160961 0.743832 -3.397719 -10.552312 -6.351777 5.141205 31.853849 -1.107240 -0.167940 -12.023990 -7.035261 -13.709479 6.273647 -37.325791 -10.404562 -0.480502 29.994344 -23.513510 -7.936536 -4.280611 2.380486 0.948330 0.622300 -0.311430 0.400510 6.508794 18.263215 5.587299 42.885121 30.959460 -0.363087 -24.414983 45.997300 -10.616627 1.112630 -0.865361 -0.868150 0.888470 0.662960 -0.073280 
-1.984760 17.988520 -3.911260 -1.817943 -1.714985 1.797059 -15.002639 12.798831 2.168576 22.340193 0.581463 -10.481157 -1.353835 5.269783 10.074628 -1.310678 5.525364 2.950461 -0.075830 -0.466750 -0.442830 18.378858 -10.546074 3.341532 -21.791564 2.942659 -18.309560 19.290333 -7.064941 7.703711 -0.321487 -4.879843 2.649964 0.064180 1.279620 0.446660 -4.001288 -0.515777 -7.242841 7.632285 2.094033 4.651493 -1.221451 1.867438 12.429227 0.664815 -3.622661 -10.538362 -6.715089 5.363253 32.186419 -0.246400 -0.387190 -12.646470 -6.956905 -13.471701 6.289081 -38.578374 -10.086584 -0.655758 29.758522 -23.796378 -7.970808 -4.237444 2.394664 0.954410 0.590540 -0.291120 0.410760 6.604822 18.271895 5.609368 43.906375 31.594289 -0.103481 -24.314726 46.678646 -10.842902 1.125644 -0.860416 -0.854200 0.889560 0.636510 -0.064210 
-2.173620 17.997340 -3.881610 -2.173568 -1.401161 1.044813 -14.986215 12.918019 2.144123 22.506066 0.801859 -9.746811 -0.925384 5.357257 10.714687 -1.292865 5.571115 2.937100 -0.063460 -0.459090 -0.430400 18.371945 -10.671968 3.249981 -20.293664 2.800836 -16.832387 18.829025 -7.119028 8.057784 -0.348526 -4.827104 2.697572 0.055940 1.259610 0.439890 -4.012246 -0.537581 -7.214684 8.025596 2.009439 5.114378 -1.133111 1.799904 12.674512 0.639595 -4.024226 -10.682869 -7.492676 5.776811 33.033750 0.428290 -0.379950 -13.740010 -7.711179 -13.619508 6.422873 -40.295414 -9.673523 -0.892291 29.369938 -23.575876 -7.945392 -4.201864 2.373294 0.992350 0.557190 -0.262700 0.414180 7.446378 18.803469 5.852876 44.083522 31.297612 -0.980261 -24.004880 49.024503 -11.246441 1.108641 -0.808281 -0.851590 0.903900 0.628710 -0.067740 
-2.374860 18.013170 -3.855920 -2.374722 -1.385048 0.160763 -14.952686 13.118608 2.022344 21.680485 1.040935 -9.170576 0.286853 5.281737 12.231749 -1.237737 5.459461 2.969864 -0.049980 -0.397950 -0.453220 18.372008 -10.907017 3.175423 -18.823480 2.701312 -15.928982 18.215421 -7.401547 9.663592 -0.360016 -4.839106 2.714229 0.063990 1.238630 0.449930 -4.052274 -0.461185 -7.120742 8.292828 1.879228 5.680156 -0.889147 1.667648 12.969100 0.547898 -4.378437 -10.671423 -8.006518 6.181608 33.395764 0.485000 -0.230120 -13.754820 -8.863069 -13.515306 6.497637 -42.712300 -8.976743 -1.255709 28.351971 -23.486950 -7.742572 -4.188678 2.406602 0.946110 0.551110 -0.236220 0.425840 8.851783 19.201524 5.944193 44.612206 31.324057 -1.532172 -22.953124 50.627995 -11.308107 1.132508 -0.816589 -0.793100 0.878170 0.605760 -0.029580 
-2.571460 18.024440 -3.828760 -2.258544 -1.442288 -0.442264 -14.953481 13.383909 1.881358 20.192679 1.263717 -9.371582 1.673263 5.239932 14.968751 -1.285646 5.397191 2.991826 -0.012860 -0.365770 -0.426470 18.336188 -11.124329 3.118184 -17.903897 2.747257 -15.863673 17.475026 -7.828684 12.132911 -0.377141 -4.869654 2.710068 0.080920 1.215480 0.440010 -3.989548 -0.494374 -7.019688 7.759114 1.946471 6.403367 -0.294397 1.772786 12.711495 0.517901 -4.572519 -10.472627 -8.279617 6.303788 33.473672 0.418440 -0.159000 -14.752870 -10.285295 -12.900752 6.205029 -45.386075 -8.520808 -1.235578 25.887788 -22.084166 -6.971082 -4.163381 2.392940 0.993030 0.523090 -0.213120 0.444220 10.396638 19.007861 5.994366 45.709341 30.561024 -2.459070 -20.376923 53.546226 -10.912194 1.123113 -0.821273 -0.805750 0.888610 0.578070 -0.041360 
-2.758210 18.031500 -3.817320 -2.202754 -1.277920 -0.999286 -14.937265 13.669396 1.771684 18.346642 1.381389 -10.403775 3.489063 5.148932 18.746708 -1.234594 5.368013 2.987218 -0.038610 -0.360960 -0.462380 18.310414 -11.364770 3.056435 -16.748187 2.842090 -16.381745 16.095826 -8.229461 15.400717 -0.359967 -4.879611 2.724708 0.057630 1.212470 0.434080 -3.968611 -0.540674 -6.955773 7.600269 1.807998 7.430016 -0.194479 1.721450 12.146623 0.420169 -4.564361 -10.419523 -8.257732 6.512625 33.916581 0.625260 -0.018960 -14.173300 -12.107600 -12.568725 6.112591 -47.070845 -7.541459 -1.841573 22.966881 -22.825291 -6.545850 -4.152413 2.383805 0.958970 0.521030 -0.202210 0.448950 12.371667 18.774309 6.169514 47.563895 29.271052 -3.482991 -17.004851 56.084703 -10.142333 1.170351 -0.843297 -0.774270 0.875300 0.570030 -0.011500 
-2.940790 18.020210 -3.824870 -2.240794 -0.463155 -1.355686 -14.944644 13.891039 1.777066 16.484843 1.238571 -12.657476 5.089887 5.089599 23.213281 -1.231449 5.535415 2.907536 -0.037250 -0.363620 -0.439040 18.273149 -11.538124 2.964496 -15.645331 3.041026 -17.342655 14.123151 -8.636357 19.569776 -0.369289 -4.938882 2.714014 0.048540 1.204840 0.430940 -3.912829 -0.655632 -6.953397 7.371689 1.294998 8.926729 -0.204066 1.357054 11.286797 0.542824 -4.200084 -10.100048 -7.537926 6.714219 34.156288 0.103280 0.649770 -14.771650 -13.693358 -11.747074 5.783595 -48.408899 -6.472598 -2.756884 19.984754 -25.125348 -6.404560 -4.127869 2.325851 0.992370 0.513550 -0.176780 0.455450 13.636680 17.686276 5.900191 50.123047 28.629891 -3.620534 -12.000807 57.542040 -8.200836 1.211323 -0.867365 -0.787360 0.892410 0.553850 -0.022520 
-3.100720 17.992270 -3.832940 -3.108323 0.506382 -1.090928 -14.918655 13.918540 1.910814 15.341374 0.797662 -16.463682 6.448366 5.272447 29.156118 -1.172136 6.038197 2.649547 -0.008450 -0.343650 -0.397690 18.308315 -11.614131 2.873931 -13.739459 3.348067 -18.699885 11.576358 -8.558248 23.060451 -0.369319 -4.914766 2.696461 0.051660 1.149450 0.448690 -4.020733 -0.642304 -7.002180 8.946805 0.541187 9.876096 -1.107076 0.803106 9.887627 0.824441 -3.733533 -9.398555 -6.768744 6.072406 33.898029 -0.757560 0.567310 -14.865750 -15.793478 -10.572242 4.955378 -48.950974 -6.479454 -2.142004 14.042741 -21.976271 -4.725080 -4.152946 2.352880 0.997900 0.493040 -0.155770 0.441420 14.884047 15.754330 5.394117 53.208217 27.352937 -3.253249 -4.359334 58.743694 -4.780610 1.291331 -0.983118 -0.761680 0.838690 0.533120 -0.038460 
-3.240640 17.950410 -3.823200 -3.901342 1.705933 -1.012395 -14.911406 13.857069 2.156265 13.725205 0.026477 -19.985808 7.954011 5.210883 34.919260 -1.074658 6.671773 2.383687 -0.002640 -0.334800 -0.372310 18.333388 -11.638828 2.764853 -12.312050 3.363871 -19.258243 9.224003 -8.368208 25.598445 -0.377347 -4.899597 2.712009 0.049850 1.112760 0.428880 -4.095734 -0.645215 -7.105525 10.298736 -0.299659 11.156896 -1.452643 0.193384 8.266209 0.974135 -3.358873 -8.728635 -6.062898 5.719229 33.617279 -1.309910 0.808970 -15.668250 -17.323128 -8.741045 4.181462 -50.632233 -5.299179 -2.884759 7.728112 -22.837550 -3.770392 -4.134056 2.319193 1.025260 0.469400 -0.134530 0.434060 15.879014 13.364580 4.711057 56.087761 25.463833 -3.043413 4.327588 58.597225 -0.598060 1.379286 -1.052307 -0.769750 0.837900 0.514120 -0.056080 
-3.390340 17.872080 -3.808100 -4.503002 1.190926 -0.570491 -14.919319 13.612940 2.518338 13.109085 -0.692622 -23.432810 7.515507 6.305968 41.406682 -0.936670 7.804511 1.958127 -0.046760 -0.410610 -0.360090 18.377199 -11.564152 2.653357 -11.229372 3.594507 -20.260903 6.967454 -8.095840 27.978851 -0.375713 -4.906382 2.723024 0.016570 1.128400 0.423670 -4.137012 -0.530472 -7.255055 11.281733 -0.418164 11.943282 -2.208060 0.352760 6.878274 1.391089 -2.590521 -8.190187 -4.622124 5.448890 33.470942 -1.957280 1.337320 -16.204300 -18.252702 -7.141395 3.364405 -52.644514 -4.558996 -3.301094 2.851703 -21.890628 -3.042871 -4.195522 2.231081 1.077510 0.480690 -0.138160 0.404810 15.759814 10.998034 4.244607 60.000271 23.432515 -2.939971 11.883093 57.598802 2.810580 1.425829 -1.053272 -0.818280 0.872390 0.553210 -0.095550 
-3.512430 17.797120 -3.804900 -5.660492 -0.108040 -0.619450 -14.896144 13.316928 2.978261 13.696423 -1.250660 -26.333241 5.591196 8.438204 47.806894 -0.664951 9.090901 1.453274 -0.029500 -0.414580 -0.305800 18.447183 -11.442657 2.565952 -9.667457 3.916289 -20.702597 4.740667 -7.567301 29.647658 -0.424373 -4.825939 2.723186 -0.023460 1.034300 0.453840 -4.249458 -0.417916 -7.532426 13.801219 -0.642257 13.574557 -3.548292 0.803435 5.447514 2.121771 -2.431367 -8.237696 -4.455776 4.890793 34.979956 -2.779250 1.545430 -17.363070 -19.916261 -7.009242 3.057878 -54.504486 -3.743354 -3.864817 -0.390101 -19.663414 -2.638382 -4.159094 2.248006 1.136250 0.417000 -0.065660 0.378260 15.599633 10.709698 4.394785 61.626777 20.534837 -4.396156 18.420285 54.872856 5.262969 1.520837 -1.077179 -0.776960 0.809140 0.537180 -0.120840 
-3.639720 17.686250 -3.783070 -5.992855 -1.756107 -0.234166 -14.938413 12.933900 3.542324 14.233382 -1.990103 -29.528092 2.591231 11.470490 53.591442 -0.354576 10.488792 0.981921 -0.050600 -0.441130 -0.297720 18.474062 -11.217222 2.433595 -9.283315 4.021587 -21.122492 3.663655 -7.337112 30.461915 -0.422559 -4.780258 2.760021 -0.050750 1.010760 0.415370 -4.210993 -0.431371 -7.799181 14.510037 -0.423906 14.552237 -3.845535 1.488370 3.852717 2.355003 -2.613378 -8.107796 -5.003468 4.464343 35.831933 -2.955140 1.331600 -17.233170 -20.668678 -5.791976 2.479327 -57.076599 -2.755592 -4.731692 -3.528614 -18.833158 -2.339900 -4.134673 2.197641 1.165250 0.388610 -0.055370 0.370600 15.625055 9.744239 4.361263 62.451558 17.060715 -5.539435 25.520282 51.576618 7.707572 1.599328 -1.072163 -0.795660 0.819640 0.524490 -0.132630 
-3.785040 17.573360 -3.762940 -6.373660 -3.511480 0.269987 -14.996498 12.414037 4.202021 15.699149 -2.547695 -32.962169 -1.584898 15.647693 58.499583 0.004477 12.043099 0.469457 -0.083720 -0.475980 -0.328300 18.510701 -10.926215 2.306070 -8.764309 4.301317 -21.400415 3.230529 -7.387784 31.673439 -0.448136 -4.856282 2.738693 -0.081620 1.008630 0.409410 -4.179968 -0.362862 -8.104835 14.901487 -0.111960 15.614177 -4.119925 2.278678 2.304176 2.325250 -2.994018 -7.936997 -5.768307 4.556264 36.312470 -1.975060 1.032440 -17.775030 -20.258583 -4.150126 1.862236 -59.516860 -1.882870 -5.672462 -7.008639 -19.197027 -2.045499 -4.141986 2.178446 1.187390 0.368900 -0.047770 0.352920 15.039647 8.637453 4.170432 63.356732 14.654612 -6.178273 29.445561 46.917774 8.305277 1.643727 -1.028950 -0.795650 0.828020 0.558500 -0.133000 
-3.905500 17.480570 -3.753490 -7.555344 -5.480119 0.360659 -15.050268 11.919845 4.897439 18.210681 -2.683385 -35.922600 -6.103225 20.274343 62.295621 0.363212 13.540615 -0.002843 -0.087850 -0.490760 -0.319190 18.550047 -10.612036 2.189829 -7.247898 4.589809 -20.660146 2.888363 -7.311010 32.175425 -0.498654 -4.830412 2.747636 -0.108140 0.970920 0.411830 -4.175050 -0.359703 -8.447779 16.643479 -0.002632 17.512067 -4.367517 3.332103 0.920365 2.495820 -3.827535 -8.237353 -7.474760 4.798022 37.555778 -1.505300 0.840790 -19.592940 -20.025624 -3.391346 1.605885 -61.248420 -0.920345 -6.890567 -10.949968 -20.976370 -1.656589 -4.104383 2.171169 1.251200 0.318990 -0.005890 0.330340 14.184852 8.956529 4.470927 62.031736 12.501010 -7.047771 32.982045 42.623426 8.577182 1.673032 -0.977129 -0.790920 0.834020 0.580280 -0.148630 
